#!OML:ASF H:\Terrain\Patient Classification 1\Walking\liu\liu.ASF
:FULLY-SPECIFIED
:DEGREES
501
root 15.909000 25.349400 51.127499 8.706750 7.342470 7.414230
lowerback -11.099190 -7.913535 -8.776800
upperback 0.673012 -9.896339 2.489625
thorax 8.212125 -5.178585 6.250620
lowerneck -35.577000 -4.274130 -15.744150
upperneck 36.489151 -5.036985 16.591650
head 18.546900 -1.526520 8.169585
rclavicle 0.000000 -0.000000
rhumerus -74.243248 7.956090 -124.931702
rradius 48.427650
rwrist -24.622952
rhand -44.170799 -30.731249
rfingers 10.687531
rthumb -4.175355 -75.673653
lclavicle 0.000000 -0.000000
lhumerus -23.984850 -36.740551 133.126801
lradius 53.449203
lwrist 11.381040
lhand -18.481350 -38.884800
lfingers 10.687531
lthumb 20.621700 5.403990
rfemur -63.403801 13.294546 16.807350
rtibia 41.679752
rfoot -36.849751 -19.921650
rtoes -39.436199
lfemur 29.324999 1.673040 -41.443199
ltibia 0.000000
lfoot -24.696751 5.518710
ltoes -4.254990
502
root 15.887401 25.283249 51.415047 8.787750 7.204545 8.172646
lowerback -11.419260 -7.875090 -9.307290
upperback 0.750549 -9.757051 2.143110
thorax 8.477085 -5.125200 6.169560
lowerneck -35.620800 -4.237065 -15.372749
upperneck 36.102600 -5.009235 16.312349
head 18.387150 -1.510410 7.979520
rclavicle -0.000000 -0.000000
rhumerus -74.324097 7.116135 -124.551750
rradius 47.686951
rwrist -23.861099
rhand -43.287151 -30.241350
rfingers 10.687531
rthumb -3.321975 -75.193802
lclavicle -0.000000 -0.000000
lhumerus -25.271549 -37.898247 133.867950
lradius 53.196297
lwrist 11.972085
lhand -16.586851 -38.462250
lfingers 10.687531
lthumb 22.447050 5.696835
rfemur -63.152252 11.647440 17.175449
rtibia 42.750149
rfoot -36.849751 -19.921650
rtoes -39.436199
lfemur 30.414751 1.669965 -42.026550
ltibia 0.000000
lfoot -24.871651 4.761405
ltoes -1.800525
503
root 15.844050 25.233002 51.670349 8.658540 7.055520 8.835525
lowerback -10.955220 -7.934850 -10.148775
upperback 0.700538 -9.782610 1.936725
thorax 8.238555 -5.152440 6.456705
lowerneck -35.520302 -3.883920 -14.624535
upperneck 35.691750 -4.631325 15.846600
head 18.134550 -1.330308 7.708410
rclavicle -0.000000 -0.000000
rhumerus -74.227798 6.945165 -124.525200
rradius 46.372200
rwrist -23.461950
rhand -43.358551 -33.421051
rfingers 10.687531
rthumb -3.390975 -78.372604
lclavicle -0.000000 -0.000000
lhumerus -26.940899 -38.956951 134.847595
lradius 52.016846
lwrist 9.328860
lhand -19.640100 -39.794701
lfingers 10.687531
lthumb 19.504799 4.567485
rfemur -63.132004 10.916700 17.317949
rtibia 43.977753
rfoot -36.849751 -19.921650
rtoes -39.436199
lfemur 31.367252 1.708905 -42.451950
ltibia 0.000000
lfoot -24.306599 4.774140
ltoes -1.917030
504
root 15.799951 25.219799 51.929398 8.672565 7.168065 8.581515
lowerback -10.679655 -7.945170 -9.948240
upperback 0.547110 -9.840705 2.018595
thorax 7.914915 -5.165475 6.455970
lowerneck -35.564102 -3.954240 -14.933910
upperneck 35.567398 -4.745745 16.339050
head 18.125099 -1.344794 7.932165
rclavicle -0.000000 0.000000
rhumerus -74.379303 6.497235 -124.290596
rradius 45.256199
rwrist -22.890900
rhand -43.871998 -37.314301
rfingers 10.687531
rthumb -3.886845 -82.260300
lclavicle -0.000000 0.000000
lhumerus -27.762749 -37.574402 135.284546
lradius 52.058701
lwrist 11.677185
lhand -20.863201 -39.922050
lfingers 10.687531
lthumb 18.325649 4.512795
rfemur -63.426003 10.214355 18.387751
rtibia 45.568199
rfoot -36.849751 -19.921650
rtoes -39.436199
lfemur 32.180099 1.550655 -41.964600
ltibia -0.000000
lfoot -23.473801 5.884425
ltoes -8.799990
505
root 15.756750 25.230600 52.218601 9.129721 7.548060 7.074975
lowerback -11.335649 -7.944900 -8.313690
upperback 0.368838 -9.967259 2.467530
thorax 7.975260 -5.186850 5.956950
lowerneck -35.417999 -4.087815 -15.520050
upperneck 35.176201 -4.890375 16.996950
head 17.988300 -1.380319 8.249085
rclavicle 0.000000 -0.000000
rhumerus -74.638199 5.686755 -123.698395
rradius 44.496750
rwrist -21.908251
rhand -42.481350 -39.923401
rfingers 10.687531
rthumb -2.543700 -84.882904
lclavicle 0.000000 -0.000000
lhumerus -28.817699 -38.005951 135.996002
lradius 51.519299
lwrist 12.327825
lhand -19.478550 -39.924450
lfingers 10.687531
lthumb 19.660500 4.427760
rfemur -64.000198 9.530250 20.582699
rtibia 46.842003
rfoot -36.849751 -19.921650
rtoes -39.436199
lfemur 32.689949 1.149264 -40.075348
ltibia 0.000000
lfoot -22.741199 6.403620
ltoes -14.282459
